<mxfile host="app.diagrams.net" agent="Mozilla/5.0 (X11; Ubuntu; Linux x86_64; rv:130.0) Gecko/20100101 Firefox/130.0" version="24.7.8">
  <diagram name="PÃ¡gina-1" id="rPkOBpCgRzpBk2Sg1Qt8">
    <mxGraphModel dx="-844" dy="449" grid="1" gridSize="10" guides="1" tooltips="1" connect="1" arrows="1" fold="1" page="1" pageScale="1" pageWidth="827" pageHeight="1169" math="0" shadow="0">
      <root>
        <mxCell id="0" />
        <mxCell id="1" parent="0" />
        <mxCell id="a0EVfYLbEGTjRdPx6Eul-7" style="edgeStyle=orthogonalEdgeStyle;rounded=0;orthogonalLoop=1;jettySize=auto;html=1;" parent="1" source="a0EVfYLbEGTjRdPx6Eul-2" target="a0EVfYLbEGTjRdPx6Eul-3" edge="1">
          <mxGeometry relative="1" as="geometry" />
        </mxCell>
        <mxCell id="a0EVfYLbEGTjRdPx6Eul-2" value="Start" style="ellipse;whiteSpace=wrap;html=1;fillColor=#dae8fc;strokeColor=#6c8ebf;gradientColor=#7ea6e0;" parent="1" vertex="1">
          <mxGeometry x="1994.5" y="80" width="147" height="60" as="geometry" />
        </mxCell>
        <mxCell id="a0EVfYLbEGTjRdPx6Eul-8" style="edgeStyle=orthogonalEdgeStyle;rounded=0;orthogonalLoop=1;jettySize=auto;html=1;" parent="1" source="a0EVfYLbEGTjRdPx6Eul-3" target="a0EVfYLbEGTjRdPx6Eul-6" edge="1">
          <mxGeometry relative="1" as="geometry" />
        </mxCell>
        <mxCell id="a0EVfYLbEGTjRdPx6Eul-3" value="&lt;font style=&quot;font-size: 15px;&quot;&gt;&lt;u&gt;Shopkeeper 1&lt;/u&gt;&lt;/font&gt;" style="rounded=0;whiteSpace=wrap;html=1;fillColor=#b1ddf0;strokeColor=#10739e;" parent="1" vertex="1">
          <mxGeometry x="1984.5" y="180" width="167" height="95" as="geometry" />
        </mxCell>
        <mxCell id="an8FnpfLQB88yYGgn-s8-2" value="" style="edgeStyle=orthogonalEdgeStyle;rounded=0;orthogonalLoop=1;jettySize=auto;html=1;" edge="1" parent="1" source="a0EVfYLbEGTjRdPx6Eul-4" target="a0EVfYLbEGTjRdPx6Eul-13">
          <mxGeometry relative="1" as="geometry" />
        </mxCell>
        <mxCell id="a0EVfYLbEGTjRdPx6Eul-4" value="Challenge 1" style="rounded=0;whiteSpace=wrap;html=1;fillColor=#0050ef;strokeColor=#001DBC;fontColor=#ffffff;fontStyle=1;fontSize=15;" parent="1" vertex="1">
          <mxGeometry x="1984" y="410" width="167" height="95" as="geometry" />
        </mxCell>
        <mxCell id="an8FnpfLQB88yYGgn-s8-5" style="edgeStyle=orthogonalEdgeStyle;rounded=0;orthogonalLoop=1;jettySize=auto;html=1;entryX=1;entryY=0.5;entryDx=0;entryDy=0;exitX=0.5;exitY=1;exitDx=0;exitDy=0;" edge="1" parent="1" source="a0EVfYLbEGTjRdPx6Eul-5" target="a0EVfYLbEGTjRdPx6Eul-4">
          <mxGeometry relative="1" as="geometry" />
        </mxCell>
        <mxCell id="a0EVfYLbEGTjRdPx6Eul-5" value="Challenge 2" style="rounded=0;whiteSpace=wrap;html=1;fillColor=#0050ef;strokeColor=#001DBC;fontColor=#ffffff;fontStyle=1;fontSize=15;" parent="1" vertex="1">
          <mxGeometry x="2210" y="290" width="167" height="95" as="geometry" />
        </mxCell>
        <mxCell id="a0EVfYLbEGTjRdPx6Eul-9" value="" style="edgeStyle=orthogonalEdgeStyle;rounded=0;orthogonalLoop=1;jettySize=auto;html=1;" parent="1" source="a0EVfYLbEGTjRdPx6Eul-6" target="a0EVfYLbEGTjRdPx6Eul-5" edge="1">
          <mxGeometry relative="1" as="geometry" />
        </mxCell>
        <mxCell id="an8FnpfLQB88yYGgn-s8-4" style="edgeStyle=orthogonalEdgeStyle;rounded=0;orthogonalLoop=1;jettySize=auto;html=1;entryX=0;entryY=0.5;entryDx=0;entryDy=0;exitX=0;exitY=0.5;exitDx=0;exitDy=0;" edge="1" parent="1" source="a0EVfYLbEGTjRdPx6Eul-6" target="a0EVfYLbEGTjRdPx6Eul-4">
          <mxGeometry relative="1" as="geometry">
            <Array as="points">
              <mxPoint x="1800" y="338" />
              <mxPoint x="1800" y="458" />
            </Array>
          </mxGeometry>
        </mxCell>
        <mxCell id="a0EVfYLbEGTjRdPx6Eul-6" value="Node 1" style="rhombus;whiteSpace=wrap;html=1;fillColor=#a20025;strokeColor=#6F0000;fontColor=#ffffff;fontStyle=1" parent="1" vertex="1">
          <mxGeometry x="2008.5" y="307.5" width="119" height="60" as="geometry" />
        </mxCell>
        <mxCell id="a0EVfYLbEGTjRdPx6Eul-20" style="edgeStyle=orthogonalEdgeStyle;rounded=0;orthogonalLoop=1;jettySize=auto;html=1;" parent="1" source="a0EVfYLbEGTjRdPx6Eul-13" target="a0EVfYLbEGTjRdPx6Eul-18" edge="1">
          <mxGeometry relative="1" as="geometry" />
        </mxCell>
        <mxCell id="a0EVfYLbEGTjRdPx6Eul-21" style="edgeStyle=orthogonalEdgeStyle;rounded=0;orthogonalLoop=1;jettySize=auto;html=1;" parent="1" source="a0EVfYLbEGTjRdPx6Eul-13" target="a0EVfYLbEGTjRdPx6Eul-19" edge="1">
          <mxGeometry relative="1" as="geometry" />
        </mxCell>
        <mxCell id="a0EVfYLbEGTjRdPx6Eul-13" value="Node 2" style="rhombus;whiteSpace=wrap;html=1;fillColor=#a20025;strokeColor=#6F0000;fontColor=#ffffff;fontStyle=1" parent="1" vertex="1">
          <mxGeometry x="2008.5" y="590" width="119" height="60" as="geometry" />
        </mxCell>
        <mxCell id="a0EVfYLbEGTjRdPx6Eul-23" style="edgeStyle=orthogonalEdgeStyle;rounded=0;orthogonalLoop=1;jettySize=auto;html=1;entryX=0;entryY=0.5;entryDx=0;entryDy=0;exitX=0.5;exitY=1;exitDx=0;exitDy=0;" parent="1" source="a0EVfYLbEGTjRdPx6Eul-18" target="a0EVfYLbEGTjRdPx6Eul-22" edge="1">
          <mxGeometry relative="1" as="geometry" />
        </mxCell>
        <mxCell id="a0EVfYLbEGTjRdPx6Eul-18" value="Challenge 3" style="rounded=0;whiteSpace=wrap;html=1;fillColor=#0050ef;strokeColor=#001DBC;fontColor=#ffffff;fontStyle=1;fontSize=15;" parent="1" vertex="1">
          <mxGeometry x="1760" y="572.5" width="167" height="95" as="geometry" />
        </mxCell>
        <mxCell id="a0EVfYLbEGTjRdPx6Eul-19" value="Room 1" style="rounded=0;whiteSpace=wrap;html=1;fillColor=#1ba1e2;strokeColor=#006EAF;fontColor=#ffffff;fontStyle=1;fontSize=15;" parent="1" vertex="1">
          <mxGeometry x="2210" y="572.5" width="167" height="95" as="geometry" />
        </mxCell>
        <mxCell id="a0EVfYLbEGTjRdPx6Eul-26" style="edgeStyle=orthogonalEdgeStyle;rounded=0;orthogonalLoop=1;jettySize=auto;html=1;" parent="1" source="a0EVfYLbEGTjRdPx6Eul-22" target="a0EVfYLbEGTjRdPx6Eul-25" edge="1">
          <mxGeometry relative="1" as="geometry" />
        </mxCell>
        <mxCell id="a0EVfYLbEGTjRdPx6Eul-22" value="&lt;font style=&quot;font-size: 15px;&quot;&gt;&lt;u&gt;Shopkeeper 2&lt;br&gt;&lt;/u&gt;&lt;/font&gt;" style="rounded=0;whiteSpace=wrap;html=1;fillColor=#b1ddf0;strokeColor=#10739e;" parent="1" vertex="1">
          <mxGeometry x="1984" y="725" width="167" height="95" as="geometry" />
        </mxCell>
        <mxCell id="a0EVfYLbEGTjRdPx6Eul-24" style="edgeStyle=orthogonalEdgeStyle;rounded=0;orthogonalLoop=1;jettySize=auto;html=1;entryX=1;entryY=0.589;entryDx=0;entryDy=0;entryPerimeter=0;exitX=0.5;exitY=1;exitDx=0;exitDy=0;" parent="1" source="a0EVfYLbEGTjRdPx6Eul-19" target="a0EVfYLbEGTjRdPx6Eul-22" edge="1">
          <mxGeometry relative="1" as="geometry" />
        </mxCell>
        <mxCell id="a0EVfYLbEGTjRdPx6Eul-31" style="edgeStyle=orthogonalEdgeStyle;rounded=0;orthogonalLoop=1;jettySize=auto;html=1;" parent="1" source="a0EVfYLbEGTjRdPx6Eul-25" target="a0EVfYLbEGTjRdPx6Eul-27" edge="1">
          <mxGeometry relative="1" as="geometry" />
        </mxCell>
        <mxCell id="a0EVfYLbEGTjRdPx6Eul-32" style="edgeStyle=orthogonalEdgeStyle;rounded=0;orthogonalLoop=1;jettySize=auto;html=1;" parent="1" source="a0EVfYLbEGTjRdPx6Eul-25" target="a0EVfYLbEGTjRdPx6Eul-30" edge="1">
          <mxGeometry relative="1" as="geometry" />
        </mxCell>
        <mxCell id="a0EVfYLbEGTjRdPx6Eul-25" value="Node 3" style="rhombus;whiteSpace=wrap;html=1;fillColor=#a20025;strokeColor=#6F0000;fontColor=#ffffff;fontStyle=1" parent="1" vertex="1">
          <mxGeometry x="2008.5" y="880" width="119" height="60" as="geometry" />
        </mxCell>
        <mxCell id="a0EVfYLbEGTjRdPx6Eul-34" style="edgeStyle=orthogonalEdgeStyle;rounded=0;orthogonalLoop=1;jettySize=auto;html=1;" parent="1" source="a0EVfYLbEGTjRdPx6Eul-27" target="a0EVfYLbEGTjRdPx6Eul-28" edge="1">
          <mxGeometry relative="1" as="geometry" />
        </mxCell>
        <mxCell id="a0EVfYLbEGTjRdPx6Eul-27" value="Room 2" style="rounded=0;whiteSpace=wrap;html=1;fillColor=#1ba1e2;strokeColor=#006EAF;fontColor=#ffffff;fontStyle=1;fontSize=15;" parent="1" vertex="1">
          <mxGeometry x="1760" y="862.5" width="167" height="95" as="geometry" />
        </mxCell>
        <mxCell id="a0EVfYLbEGTjRdPx6Eul-35" style="edgeStyle=orthogonalEdgeStyle;rounded=0;orthogonalLoop=1;jettySize=auto;html=1;entryX=0;entryY=0.579;entryDx=0;entryDy=0;entryPerimeter=0;exitX=0.5;exitY=1;exitDx=0;exitDy=0;" parent="1" source="a0EVfYLbEGTjRdPx6Eul-28" target="a0EVfYLbEGTjRdPx6Eul-29" edge="1">
          <mxGeometry relative="1" as="geometry" />
        </mxCell>
        <mxCell id="a0EVfYLbEGTjRdPx6Eul-28" value="Challenge 4" style="rounded=0;whiteSpace=wrap;html=1;fillColor=#0050ef;strokeColor=#001DBC;fontColor=#ffffff;fontStyle=1;fontSize=15;" parent="1" vertex="1">
          <mxGeometry x="1760" y="1010" width="167" height="95" as="geometry" />
        </mxCell>
        <mxCell id="a0EVfYLbEGTjRdPx6Eul-42" style="edgeStyle=orthogonalEdgeStyle;rounded=0;orthogonalLoop=1;jettySize=auto;html=1;" parent="1" source="a0EVfYLbEGTjRdPx6Eul-29" target="a0EVfYLbEGTjRdPx6Eul-41" edge="1">
          <mxGeometry relative="1" as="geometry" />
        </mxCell>
        <mxCell id="a0EVfYLbEGTjRdPx6Eul-29" value="Challenge 6" style="rounded=0;whiteSpace=wrap;html=1;fillColor=#0050ef;strokeColor=#001DBC;fontColor=#ffffff;fontStyle=1;fontSize=15;" parent="1" vertex="1">
          <mxGeometry x="1984" y="1310" width="167" height="95" as="geometry" />
        </mxCell>
        <mxCell id="a0EVfYLbEGTjRdPx6Eul-37" style="edgeStyle=orthogonalEdgeStyle;rounded=0;orthogonalLoop=1;jettySize=auto;html=1;" parent="1" source="a0EVfYLbEGTjRdPx6Eul-30" target="a0EVfYLbEGTjRdPx6Eul-33" edge="1">
          <mxGeometry relative="1" as="geometry" />
        </mxCell>
        <mxCell id="a0EVfYLbEGTjRdPx6Eul-30" value="Challenge 5" style="rounded=0;whiteSpace=wrap;html=1;fillColor=#0050ef;strokeColor=#001DBC;fontColor=#ffffff;fontStyle=1;fontSize=15;" parent="1" vertex="1">
          <mxGeometry x="2210" y="862.5" width="167" height="95" as="geometry" />
        </mxCell>
        <mxCell id="a0EVfYLbEGTjRdPx6Eul-38" style="edgeStyle=orthogonalEdgeStyle;rounded=0;orthogonalLoop=1;jettySize=auto;html=1;exitX=1;exitY=0.5;exitDx=0;exitDy=0;" parent="1" source="a0EVfYLbEGTjRdPx6Eul-33" target="a0EVfYLbEGTjRdPx6Eul-36" edge="1">
          <mxGeometry relative="1" as="geometry" />
        </mxCell>
        <mxCell id="a0EVfYLbEGTjRdPx6Eul-39" style="edgeStyle=orthogonalEdgeStyle;rounded=0;orthogonalLoop=1;jettySize=auto;html=1;" parent="1" source="a0EVfYLbEGTjRdPx6Eul-33" target="a0EVfYLbEGTjRdPx6Eul-29" edge="1">
          <mxGeometry relative="1" as="geometry" />
        </mxCell>
        <mxCell id="a0EVfYLbEGTjRdPx6Eul-33" value="Node 4" style="rhombus;whiteSpace=wrap;html=1;fillColor=#a20025;strokeColor=#6F0000;fontColor=#ffffff;fontStyle=1" parent="1" vertex="1">
          <mxGeometry x="2234" y="1200" width="119" height="60" as="geometry" />
        </mxCell>
        <mxCell id="a0EVfYLbEGTjRdPx6Eul-40" style="edgeStyle=orthogonalEdgeStyle;rounded=0;orthogonalLoop=1;jettySize=auto;html=1;" parent="1" source="a0EVfYLbEGTjRdPx6Eul-36" target="a0EVfYLbEGTjRdPx6Eul-29" edge="1">
          <mxGeometry relative="1" as="geometry" />
        </mxCell>
        <mxCell id="a0EVfYLbEGTjRdPx6Eul-36" value="Room 3" style="rounded=0;whiteSpace=wrap;html=1;fillColor=#1ba1e2;strokeColor=#006EAF;fontColor=#ffffff;fontStyle=1;fontSize=15;" parent="1" vertex="1">
          <mxGeometry x="2300" y="1310" width="167" height="95" as="geometry" />
        </mxCell>
        <mxCell id="a0EVfYLbEGTjRdPx6Eul-45" style="edgeStyle=orthogonalEdgeStyle;rounded=0;orthogonalLoop=1;jettySize=auto;html=1;" parent="1" source="a0EVfYLbEGTjRdPx6Eul-41" target="a0EVfYLbEGTjRdPx6Eul-44" edge="1">
          <mxGeometry relative="1" as="geometry" />
        </mxCell>
        <mxCell id="a0EVfYLbEGTjRdPx6Eul-46" style="edgeStyle=orthogonalEdgeStyle;rounded=0;orthogonalLoop=1;jettySize=auto;html=1;" parent="1" source="a0EVfYLbEGTjRdPx6Eul-41" target="a0EVfYLbEGTjRdPx6Eul-43" edge="1">
          <mxGeometry relative="1" as="geometry" />
        </mxCell>
        <mxCell id="a0EVfYLbEGTjRdPx6Eul-41" value="Node 5" style="rhombus;whiteSpace=wrap;html=1;fillColor=#a20025;strokeColor=#6F0000;fontColor=#ffffff;fontStyle=1" parent="1" vertex="1">
          <mxGeometry x="2008.5" y="1480" width="119" height="60" as="geometry" />
        </mxCell>
        <mxCell id="a0EVfYLbEGTjRdPx6Eul-49" style="edgeStyle=orthogonalEdgeStyle;rounded=0;orthogonalLoop=1;jettySize=auto;html=1;" parent="1" source="a0EVfYLbEGTjRdPx6Eul-43" target="a0EVfYLbEGTjRdPx6Eul-48" edge="1">
          <mxGeometry relative="1" as="geometry" />
        </mxCell>
        <mxCell id="a0EVfYLbEGTjRdPx6Eul-43" value="Challenge 7" style="rounded=0;whiteSpace=wrap;html=1;fillColor=#0050ef;strokeColor=#001DBC;fontColor=#ffffff;fontStyle=1;fontSize=15;" parent="1" vertex="1">
          <mxGeometry x="1984.5" y="1624" width="167" height="95" as="geometry" />
        </mxCell>
        <mxCell id="a0EVfYLbEGTjRdPx6Eul-47" style="edgeStyle=orthogonalEdgeStyle;rounded=0;orthogonalLoop=1;jettySize=auto;html=1;entryX=0;entryY=0.5;entryDx=0;entryDy=0;exitX=0.5;exitY=1;exitDx=0;exitDy=0;" parent="1" source="a0EVfYLbEGTjRdPx6Eul-44" target="a0EVfYLbEGTjRdPx6Eul-43" edge="1">
          <mxGeometry relative="1" as="geometry" />
        </mxCell>
        <mxCell id="a0EVfYLbEGTjRdPx6Eul-44" value="&lt;font style=&quot;font-size: 15px;&quot;&gt;&lt;u&gt;Shopkeeper 3&lt;br&gt;&lt;/u&gt;&lt;/font&gt;" style="rounded=0;whiteSpace=wrap;html=1;fillColor=#b1ddf0;strokeColor=#10739e;" parent="1" vertex="1">
          <mxGeometry x="1760" y="1462.5" width="167" height="95" as="geometry" />
        </mxCell>
        <mxCell id="a0EVfYLbEGTjRdPx6Eul-48" value="End" style="ellipse;whiteSpace=wrap;html=1;fillColor=#dae8fc;strokeColor=#6c8ebf;gradientColor=#7ea6e0;" parent="1" vertex="1">
          <mxGeometry x="1994" y="1784" width="147" height="60" as="geometry" />
        </mxCell>
        <mxCell id="a0EVfYLbEGTjRdPx6Eul-50" value="&lt;h3&gt;The Scranton Saga Labyrinth&lt;/h3&gt;" style="text;html=1;align=center;verticalAlign=middle;whiteSpace=wrap;rounded=0;fontSize=19;fontFamily=Verdana;fillColor=none;labelBackgroundColor=none;" parent="1" vertex="1">
          <mxGeometry x="1665.5" y="40" width="356" height="50" as="geometry" />
        </mxCell>
      </root>
    </mxGraphModel>
  </diagram>
</mxfile>
